<svg xmlns="http://www.w3.org/2000/svg" width="154" height="46" viewBox="0 0 154 46" fill="none"><path fill-rule="evenodd" clip-rule="evenodd" d="M19.3632 7.09375H16.9165C15.8797 7.09375 15.548 7.46713 15.548 8.46381V26.8942C15.548 30.4636 13.7652 32.3317 10.1993 32.3317C7.33841 32.3317 5.92861 31.0032 5.09907 28.5127C4.68449 27.4751 4.26991 27.2676 3.27468 27.6409L1.03534 28.4297C0.0404904 28.8035 -0.208408 29.2602 0.164568 30.2565C1.57437 34.656 4.72572 37.1882 10.1993 37.1882C17.1238 37.1882 20.7726 33.2446 20.7726 26.8525V8.46381C20.7726 7.46713 20.3993 7.09375 19.3632 7.09375Z" fill="#19323C"></path><path fill-rule="evenodd" clip-rule="evenodd" d="M38.0613 28.8869C38.0613 31.3775 36.403 32.8305 33.3345 32.8305C30.3076 32.8305 28.6077 31.3775 28.6077 28.8869V22.7436C28.6077 20.2114 30.3076 18.8 33.3345 18.8C36.403 18.8 38.0613 20.2114 38.0613 22.7436V28.8869ZM33.3345 14.4414C27.1979 14.4414 23.7976 17.5962 23.7976 22.7436V28.8869C23.7976 34.0339 27.1979 37.1887 33.3345 37.1887C39.554 37.1887 42.8714 34.0339 42.8714 28.8869V22.7436C42.8714 17.5962 39.554 14.4414 33.3345 14.4414Z" fill="#19323C"></path><path fill-rule="evenodd" clip-rule="evenodd" d="M59.4531 28.2668C59.4531 31.3383 57.9188 32.7912 54.5602 32.7912C53.2332 32.7912 51.9895 32.625 51.0355 32.2933C50.7041 32.1687 50.7041 32.0441 50.7041 31.8366V19.5912C51.699 19.2591 53.2332 18.8441 54.9748 18.8441C57.9188 18.8441 59.4531 20.2967 59.4531 22.9119V28.2668ZM55.6798 14.4438C53.6478 14.4438 51.9478 14.8592 50.7041 15.1497V7.13832C50.7041 6.18366 50.3724 5.85156 49.4184 5.85156H47.1794C46.2258 5.85156 45.894 6.18366 45.894 7.13832V33.58C45.894 34.9081 46.1013 35.2402 47.4283 35.8631C48.8793 36.4857 51.5745 37.1911 54.9331 37.1911C61.2358 37.1911 64.2627 34.078 64.2627 28.3914V22.7873C64.2627 17.5157 61.5676 14.4438 55.6798 14.4438Z" fill="#19323C"></path><path fill-rule="evenodd" clip-rule="evenodd" d="M79.0216 15.0667H74.2532V11.331C74.2532 10.3764 73.963 10.0859 73.009 10.0859H70.7285C69.7748 10.0859 69.4431 10.3764 69.4431 11.331V15.0667H66.6235C65.6699 15.0667 65.3381 15.3575 65.3381 16.3122V18.2219C65.3381 19.1765 65.6699 19.5083 66.6235 19.5083H69.4431V28.018C69.4431 35.1992 72.097 37.3577 78.98 37.1498C79.9336 37.1089 80.2653 36.8181 80.2653 35.8218V33.9125C80.2653 32.9162 79.9336 32.6254 78.98 32.6254C75.4969 32.6254 74.2532 31.9199 74.2532 27.8521V19.5083H79.0216C79.9752 19.5083 80.2653 19.1765 80.2653 18.2219V16.3122C80.2653 15.3575 79.9752 15.0667 79.0216 15.0667Z" fill="#19323C"></path><path fill-rule="evenodd" clip-rule="evenodd" d="M86.032 7.01172H85.7419C83.8343 7.01172 83.2124 7.59299 83.2124 9.5023V9.87605C83.2124 11.7854 83.8343 12.4079 85.7419 12.4079H86.032C87.9392 12.4079 88.5199 11.7854 88.5199 9.87605V9.5023C88.5199 7.59299 87.9392 7.01172 86.032 7.01172Z" fill="#19323C"></path><path fill-rule="evenodd" clip-rule="evenodd" d="M87.0249 15.0664H84.786C83.832 15.0664 83.5002 15.3572 83.5002 16.3119V35.2819C83.5002 36.2365 83.832 36.5686 84.786 36.5686H87.0249C87.9786 36.5686 88.3103 36.2365 88.3103 35.2819V16.3119C88.3103 15.3572 87.9786 15.0664 87.0249 15.0664Z" fill="#19323C"></path><path fill-rule="evenodd" clip-rule="evenodd" d="M106.554 28.3473C106.554 31.3358 105.061 32.7888 101.785 32.7888C100.209 32.7888 98.7578 32.4151 97.8042 32.1663V19.838C97.8042 19.5471 97.8458 19.4226 98.1775 19.2984C99.214 19.0075 100.417 18.8417 101.951 18.8417C104.936 18.8417 106.554 20.253 106.554 22.9511V28.3473ZM102.655 14.4414C98.7994 14.4414 96.2699 15.0227 94.6116 15.6452C93.2847 16.1848 92.9941 16.6828 92.9941 18.0112V44.4113C92.9941 45.3663 93.3259 45.6984 94.2799 45.6984H96.5188C97.4725 45.6984 97.8042 45.3663 97.8042 44.4113V36.442C98.9235 36.7324 100.417 37.1887 102.158 37.1887C108.419 37.1887 111.363 34.0756 111.363 28.5132V22.8265C111.363 17.5133 108.626 14.4414 102.655 14.4414Z" fill="#19323C"></path><path fill-rule="evenodd" clip-rule="evenodd" d="M140.564 0H128.555C120.923 0 115.464 5.46425 115.464 13.1045V36.5673H126.443V15.093L126.448 15.1138C126.546 12.82 128.434 10.9906 130.75 10.9906H138.578L138.557 10.9951C140.848 11.0936 142.676 12.9836 142.676 15.302V21.4743L142.671 21.4535C142.573 23.747 140.685 25.5767 138.369 25.5767H132.944L127.236 36.5576L140.564 36.5673C148.196 36.5673 153.654 31.1031 153.654 23.4629V13.1041C153.654 5.46425 148.196 0 140.564 0Z" fill="#D6006E"></path></svg>